<svg t="1590658440572" class="icon" viewBox="0 0 1024 1024" version="1.1" xmlns="http://www.w3.org/2000/svg" p-id="1070" width="200" height="200"><path d="M512.48768173 933.875a35.15096283 35.15096283 0 0 1-35.15096202-35.15096283V189.72911978l-184.54255443 210.90577616a35.15096283 35.15096283 0 1 1-52.72644425-46.39927094l215.12389171-246.05673898A52.72644425 52.72644425 0 0 1 547.63864457 142.97833881V898.72403716a35.15096283 35.15096283 0 0 1-35.15096284 35.15096284z m269.25637444-530.07651781a35.15096283 35.15096283 0 0 0 3.16358708-49.56285719l-123.02836991-140.60385133a35.15096283 35.15096283 0 1 0-52.72644341 46.39927095l123.02836907 140.60385129a35.15096283 35.15096283 0 0 0 49.56285717 3.16358628z" fill="#ff5777" p-id="1071"></path></svg>
