<svg t="1593568661047" class="icon" viewBox="0 0 1024 1024" version="1.1" xmlns="http://www.w3.org/2000/svg" p-id="1282" width="200" height="200"><path d="M520.533333 352l-362.666666 362.666667c-8.533333 8.533333-21.333333 8.533333-29.866667 0-8.533333-8.533333-8.533333-21.333333 0-29.86666701L490.666667 320c8.533333-8.533333 21.333333-8.533333 29.866666 0 8.533333 8.533333 8.533333 23.466667 0 32z" fill="#1296db" p-id="1283"></path><path d="M853.333333 712.533333l-362.666666-362.666666c-8.533333-8.533333-8.533333-21.333333 0-29.866667 8.533333-8.533333 21.333333-8.533333 29.866666 0l362.666667 362.666667c8.533333 8.533333 8.533333 21.333333 0 29.866666-6.4 8.533333-21.333333 8.533333-29.866667 0z" fill="#1296db" p-id="1284"></path></svg>
